<svg xmlns="http://www.w3.org/2000/svg" xmlns:xlink="http://www.w3.org/1999/xlink" width="20" height="20" viewBox="0 0 20 20">
    <defs>
        <path id="a" d="M11.25.558s.616 2.209.616 4c0 1.717-1.124 3.109-2.841 3.109C7.3 7.667 6 6.275 6 4.558l.025-.3a11.474 11.474 0 0 0-2.692 7.409A6.665 6.665 0 0 0 10 18.333a6.665 6.665 0 0 0 6.666-6.666c0-4.492-2.158-8.5-5.416-11.109zM9.758 15.833c-1.483 0-2.683-1.166-2.683-2.616 0-1.35.875-2.3 2.342-2.6 1.475-.3 3-1.009 3.85-2.15.324 1.075.491 2.208.491 3.366 0 2.209-1.792 4-4 4z"/>
    </defs>
    <g fill="none" fill-rule="evenodd">
        <mask id="b" fill="#fff">
            <use xlink:href="#a"/>
        </mask>
        <g fill="#e6492d" mask="url(#b)">
            <path d="M0 0h20v20H0z"/>
        </g>
    </g>
</svg>
