<svg xmlns="http://www.w3.org/2000/svg" width="140" height="140" viewBox="0 0 140 140">
    <defs>
        <radialGradient id="a" cx="121.747%" cy="-16.936%" r="158.053%" fx="121.747%" fy="-16.936%">
            <stop offset="0%" stop-color="#E5EDF9"/>
            <stop offset="100%" stop-color="#FFF"/>
        </radialGradient>
    </defs>
    <g fill="none" fill-rule="evenodd">
        <circle cx="70" cy="70" r="70" fill="url(#a)" opacity=".5"/>
        <g fill-rule="nonzero" transform="translate(36 37)">
            <path fill="#FF857F" d="M32.5 6.5c-14.365 0-26 11.635-26 26s11.635 26 26 26 26-11.635 26-26-11.635-26-26-26zm11.375 13a4.868 4.868 0 0 1 4.875 4.875 4.868 4.868 0 0 1-4.875 4.875A4.868 4.868 0 0 1 39 24.375a4.868 4.868 0 0 1 4.875-4.875zm-22.75 0A4.868 4.868 0 0 1 26 24.375a4.868 4.868 0 0 1-4.875 4.875 4.868 4.868 0 0 1-4.875-4.875 4.868 4.868 0 0 1 4.875-4.875zM32.5 50.375c-7.573 0-14.04-4.712-16.64-11.375h5.428c2.274 3.867 6.402 6.5 11.212 6.5s8.97-2.633 11.212-6.5h5.428c-2.6 6.663-9.068 11.375-16.64 11.375z" opacity=".2"/>
            <circle cx="43.875" cy="24.375" r="4.875" fill="#FF675F"/>
            <circle cx="21.125" cy="24.375" r="4.875" fill="#FF675F"/>
            <path fill="#FF675F" d="M32.5 45.5c-4.81 0-8.938-2.633-11.212-6.5H15.86c2.6 6.663 9.067 11.375 16.64 11.375 7.572 0 14.04-4.712 16.64-11.375h-5.428c-2.242 3.867-6.402 6.5-11.212 6.5z"/>
            <path fill="#FF675F" d="M32.468 0C14.527 0 0 14.56 0 32.5 0 50.44 14.527 65 32.468 65 50.44 65 65 50.44 65 32.5 65 14.56 50.44 0 32.468 0zm.032 58.5c-14.365 0-26-11.635-26-26s11.635-26 26-26 26 11.635 26 26-11.635 26-26 26z"/>
        </g>
    </g>
</svg>
