<svg xmlns="http://www.w3.org/2000/svg" width="140" height="140" viewBox="0 0 140 140">
    <defs>
        <radialGradient id="a" cx="121.747%" cy="-16.936%" r="158.053%" fx="121.747%" fy="-16.936%">
            <stop offset="0%" stop-color="#E5EDF9"/>
            <stop offset="100%" stop-color="#FFF"/>
        </radialGradient>
    </defs>
    <g fill="none" fill-rule="evenodd">
        <circle cx="70" cy="70" r="70" fill="url(#a)" opacity=".5"/>
        <path fill="#FF675F" stroke="#F8FAFE" stroke-width="1.296" d="M91.25 66.5v-9.75l3.25 9.75h-3.25zm-45.5-9.75v9.75H42.5l3.25-9.75zM55.5 40.5h26a3.251 3.251 0 0 1 3.25 3.25V66.5H81.5A6.498 6.498 0 0 0 75 73v3.25a3.251 3.251 0 0 1-3.25 3.25h-6.5A3.251 3.251 0 0 1 62 76.25V73c0-3.591-2.909-6.5-6.5-6.5h-3.25V43.75a3.251 3.251 0 0 1 3.25-3.25zm39 6.5h-3.25v-6.5c0-3.591-2.909-6.5-6.5-6.5h-32.5a6.498 6.498 0 0 0-6.5 6.5V47H42.5L36 66.5v26c0 3.591 2.909 6.5 6.5 6.5h52c3.591 0 6.5-2.909 6.5-6.5v-26L94.5 47z"/>
        <path fill="#FFF" fill-rule="nonzero" d="M91.25 92.5h-45.5a3.251 3.251 0 0 1-3.25-3.25V73h9.75a3.251 3.251 0 0 1 3.25 3.25v3.25c0 3.591 2.909 6.5 6.5 6.5h13c3.591 0 6.5-2.909 6.5-6.5v-3.25A3.251 3.251 0 0 1 84.75 73h9.75v16.25a3.251 3.251 0 0 1-3.25 3.25z" opacity=".2"/>
        <path fill="#FAD6D7" fill-rule="nonzero" d="M58.1 45.7H62v3.9h-3.9zM58.1 53.5H62v3.9h-3.9zM65.9 45.7h13v3.9h-13zM65.9 53.5h13v3.9h-13z"/>
    </g>
</svg>
