<svg xmlns="http://www.w3.org/2000/svg" width="140" height="140" viewBox="0 0 140 140">
    <defs>
        <radialGradient id="a" cx="121.747%" cy="-16.936%" r="158.053%" fx="121.747%" fy="-16.936%">
            <stop offset="0%" stop-color="#E5EDF9"/>
            <stop offset="100%" stop-color="#FFF"/>
        </radialGradient>
    </defs>
    <g fill="none" fill-rule="evenodd">
        <circle cx="70" cy="70" r="70" fill="url(#a)" opacity=".5"/>
        <g fill-rule="nonzero">
            <path fill="#FF675F" d="M101.91 86.638c0 3.967-3.22 7.182-7.192 7.182H44.372c-3.972 0-7.192-3.215-7.192-7.182v-32.32c0-3.967 3.22-7.183 7.192-7.183h50.346c3.972 0 7.192 3.216 7.192 7.182v32.321z"/>
            <path fill="#FFF" d="M58.666 69.823L38.325 90.137c-.049.05-.067.113-.108.164a7.164 7.164 0 0 0 2.488 2.485c.052-.042.114-.06.162-.106L61.21 72.362a1.795 1.795 0 0 0 0-2.539 1.8 1.8 0 0 0-2.544 0M100.872 90.301c-.037-.05-.059-.113-.107-.162l-20.34-20.315a1.8 1.8 0 0 0-2.544 0 1.792 1.792 0 0 0 0 2.539l20.341 20.315c.049.049.112.067.162.108a7.134 7.134 0 0 0 2.488-2.485"/>
            <path fill="#FFF" d="M94.718 47.135H44.372c-3.972 0-7.192 3.216-7.192 7.182v1.85l26.122 26.027c3.406 3.4 8.969 3.4 12.378 0l26.23-26.065v-1.812c0-3.966-3.22-7.182-7.192-7.182"/>
            <path fill="#FF675F" d="M94.718 47.135H44.372c-2.855 0-5.302 1.677-6.464 4.085l26.55 26.515a7.2 7.2 0 0 0 10.172 0l26.552-26.515c-1.162-2.408-3.607-4.085-6.464-4.085"/>
        </g>
    </g>
</svg>
