<svg xmlns="http://www.w3.org/2000/svg" xmlns:xlink="http://www.w3.org/1999/xlink" width="16" height="16" viewBox="0 0 16 16">
    <defs>
        <path id="a" d="M13.376 9.765a1.549 1.549 0 0 0-.417 1.335l.516 3.133c.161.975-.583 1.767-1.427 1.767-.222 0-.452-.055-.674-.177l-2.7-1.479a1.405 1.405 0 0 0-1.348 0l-2.7 1.48A1.398 1.398 0 0 1 3.95 16c-.844 0-1.588-.792-1.427-1.767L3.04 11.1c.08-.49-.075-.989-.417-1.335L.44 7.546c-.86-.872-.385-2.393.802-2.573l3.02-.457c.471-.071.88-.38 1.09-.826L6.7.84C6.967.28 7.483 0 8 0c.517 0 1.034.28 1.3.84l1.35 2.85c.21.446.618.755 1.09.826l3.02.457c1.187.18 1.661 1.7.802 2.573l-2.185 2.219z"/>
    </defs>
    <g fill="none" fill-rule="evenodd">
        <mask id="b" fill="#fff">
            <use xlink:href="#a"/>
        </mask>
        <use fill="#FFF" fill-opacity="0" xlink:href="#a"/>
        <g fill="#FF3B30" mask="url(#b)">
            <path d="M0 0h16v16H0z"/>
        </g>
    </g>
</svg>
