<svg xmlns="http://www.w3.org/2000/svg" xmlns:xlink="http://www.w3.org/1999/xlink" width="20" height="20" viewBox="0 0 20 20">
    <defs>
        <path id="a" d="M18 17a1 1 0 0 1-2 0V3a1 1 0 0 1 2 0v14zm0-17h-2a2 2 0 0 0-2 2v16a2 2 0 0 0 2 2h2a2 2 0 0 0 2-2V2a2 2 0 0 0-2-2zm-7 17a1 1 0 0 1-2 0V7a1 1 0 0 1 2 0v10zm0-13H9a2 2 0 0 0-2 2v12a2 2 0 0 0 2 2h2a2 2 0 0 0 2-2V6a2 2 0 0 0-2-2zM4 17a1 1 0 0 1-2 0v-4a1 1 0 0 1 2 0v4zm0-7H2a2 2 0 0 0-2 2v6a2 2 0 0 0 2 2h2a2 2 0 0 0 2-2v-6a2 2 0 0 0-2-2z"/>
    </defs>
    <g fill="none" fill-rule="evenodd">
        <mask id="b" fill="#fff">
            <use xlink:href="#a"/>
        </mask>
        <use fill="#FFF" fill-opacity="0" xlink:href="#a"/>
        <g fill="#FFF" mask="url(#b)">
            <path d="M0 0h20v20H0z"/>
        </g>
    </g>
</svg>
